/* XPM */
static char *result[] = {
/* columns rows colors chars-per-pixel */
"81 81 29 1 ",
"  c #010103",
". c #111112",
"X c #212120",
"o c #212021",
"O c gray13",
"+ c #30302F",
"@ c gray19",
"# c #40403E",
"$ c #50504D",
"% c #605F5C",
"& c #6F6E6B",
"* c #6F6F6B",
"= c #706E6B",
"- c #7F7F7A",
"; c #807E7A",
": c #8F8F89",
"> c #908E88",
", c #908E89",
"< c #9F9E97",
"1 c #9F9E98",
"2 c #AFADA6",
"3 c #AFADA7",
"4 c #BFBDB5",
"5 c #CFCDC4",
"6 c #DEDCD3",
"7 c #DEDDD3",
"8 c #EEECE2",
"9 c #FEFCF1",
"0 c None",
/* pixels */
"                                                                                0",
"                                                                                0",
"                                                                                0",
"                                                                                0",
"                                                                                0",
"                                                                                0",
"                                                                                0",
"                                                                                0",
"                                                                                0",
"                                                                                0",
"                                                                                0",
"                                                                                0",
"                                +&<568999652;$.                                 0",
"                            .#<89999999999999995&O                              0",
"                          .;89996<&$X.   X#$;499994#                            0",
"                        .;8994&X               $19997#                          0",
"                       =8994#                    o%699<O                        0",
"                     .2994#                         -897%                       0",
"                    @698*                            o299;                      0",
"                   #895O                               -99<                     0",
"                  %991                                  #89<                    0",
"                 @99-                                    o69<                   0",
"                o89-                                      o89>                  0",
"               .691                                        +99%                 0",
"               ,97.                                         *98O                0",
"              %99O                                           294                0",
"              694                                            .89$               0",
"              4997%                                           *97               0",
"               %6997#                                          49%              0",
"                 %6992O                                        #95              0",
"                   -699<O                                       89#             0",
"                    o:999<O                                     ;91             0",
"                      o1999;O                                   o98             0",
"                        o1997=                                   59#            0",
"                          o4997%                                 ,9;            0",
"                            $6997%                               %93            0",
"                              %6997#                             o97            0",
"                                %6992O                            99            0",
"                                  -699<.                          69O           0",
"                                   o:992                          59@           0",
"                                     o98                          49#           0",
"                                     #99                          49#           0",
"                                   #499:                          59#           0",
"                                 #4998-                           69O           0",
"                               #4998-.                            99            0",
"                             #4998-.                             @95            0",
"                           #4998-.                               $94            0",
"                         #4998-.                                 ,9;            0",
"                       #4998-.                                   59#            0",
"                     %4998-.                                    o98             0",
"                   %6998-.                                      ;91             0",
"                 %6997%                                         69#             0",
"              .;8997%                                          %97              0",
"             o8994#                                            69%              0",
"             =99#                                             %97               0",
"              69=                                            o69%               0",
"              #98O                                           <94                0",
"               :97.                                         =98O                0",
"               .69<                                        @99%                 0",
"                o89;                                      o69-                  0",
"                 +99;                                    o691                   0",
"                  %99>                                  #891                    0",
"                   #897O                               =991                     0",
"                    o697%                            o499-                      0",
"                     o1995O                        .;898#                       0",
"                       %699<#                    .;8993.                        0",
"                        o:9997%O              .#<8994#                          0",
"                          o:69995<&#X.   X+%>489994#                            0",
"                             $189999999999999994-.                              0",
"                                #&,468999652,$.                                 0",
"                                                                                0",
"                                                                                0",
"                                                                                0",
"                                                                                0",
"                                                                                0",
"                                                                                0",
"                                                                                0",
"                                                                                0",
"                                                                                0",
"                                                                                0",
"000000000000000000000000000000000000000000000000000000000000000000000000000000000"
};
