/* XPM */
static char *_857db54950843e8adf56826265be5b2a4PttFetbK6AVucR[] = {
/* columns rows colors chars-per-pixel */
"80 80 2 1 ",
"  c #010103",
". c #142CF2",
/* pixels */
"................................................................................",
"................................................................................",
"................................................................................",
"................................................................................",
"................................................................................",
"................................................................................",
"................................................................................",
"................................................................................",
"........                                                                ........",
"........                                                                ........",
"........                                                                ........",
"........                                                                ........",
"........                                                                ........",
"........                                                                ........",
"........                                                                ........",
"........                                                                ........",
"........                                                                ........",
"........                                                                ........",
"........                                                                ........",
"........                                                                ........",
"........                                                                ........",
"........                                                                ........",
"........                                                                ........",
"........                                                                ........",
"........                                                                ........",
"........                                                                ........",
"........                                                                ........",
"........                                                                ........",
"........                                                                ........",
"........                                                                ........",
"........                                                                ........",
"........                                                                ........",
"........                                                                ........",
"........                                                                ........",
"........                                                                ........",
"........                                                                ........",
"........                                                                ........",
"........                                                                ........",
"........                                                                ........",
"........                                                                ........",
"........                                                                ........",
"........                                                                ........",
"........                                                                ........",
"........                                                                ........",
"........                                                                ........",
"........                                                                ........",
"........                                                                ........",
"........                                                                ........",
"........                                                                ........",
"........                                                                ........",
"........                                                                ........",
"........                                                                ........",
"........                                                                ........",
"........                                                                ........",
"........                                                                ........",
"........                                                                ........",
"........                                                                ........",
"........                                                                ........",
"........                                                                ........",
"........                                                                ........",
"........                                                                ........",
"........                                                                ........",
"........                                                                ........",
"........                                                                ........",
"........                                                                ........",
"........                                                                ........",
"........                                                                ........",
"........                                                                ........",
"........                                                                ........",
"........                                                                ........",
"........                                                                ........",
"........                                                                ........",
"................................................................................",
"................................................................................",
"................................................................................",
"................................................................................",
"................................................................................",
"................................................................................",
"................................................................................",
"................................................................................"
};
