/* XPM */
static char *_9789879f4004304cf890285a43e677dMoSFBjlu4xFXILH0[] = {
/* columns rows colors chars-per-pixel */
"80 80 110 2 ",
"   c #010103",
".  c #020204",
"X  c #030305",
"o  c #060608",
"O  c #0A0A0C",
"+  c #0B0B0D",
"@  c #0F0F10",
"#  c #121214",
"$  c #141415",
"%  c #161618",
"&  c #1A1A1C",
"*  c #1B1B1D",
"=  c #1E1E20",
"-  c #212122",
";  c #212123",
":  c #232325",
">  c #262628",
",  c #29292B",
"<  c #2B2B2C",
"1  c #2D2D2F",
"2  c #2F2F30",
"3  c #323233",
"4  c #333335",
"5  c #353537",
"6  c #363638",
"7  c #39393B",
"8  c #3B3B3C",
"9  c #3D3D3F",
"0  c #3F3F40",
"q  c #404042",
"w  c #434345",
"e  c #464647",
"r  c #464648",
"t  c #49494A",
"y  c #4B4B4D",
"u  c #4D4D4E",
"i  c #4E4E50",
"p  c #515152",
"a  c #525254",
"s  c #565657",
"d  c #575759",
"f  c #585859",
"g  c #5C5C5D",
"h  c #5E5E60",
"j  c #616162",
"k  c #636365",
"l  c #666667",
"z  c #676768",
"x  c #686869",
"c  c #6C6C6D",
"v  c #6F6F70",
"b  c #717172",
"n  c #727274",
"m  c #757576",
"M  c #777778",
"N  c #79797A",
"B  c #7B7B7C",
"V  c #7D7D7E",
"C  c #7E7E7F",
"Z  c #808081",
"A  c #838384",
"S  c #858586",
"D  c #868688",
"F  c #89898A",
"G  c #8B8B8C",
"H  c #8E8E8F",
"J  c #8F8F90",
"K  c #919192",
"L  c #939394",
"P  c #959595",
"I  c #989898",
"U  c gray60",
"Y  c #9B9B9C",
"T  c #9E9E9F",
"R  c #A1A1A2",
"E  c #A6A6A7",
"W  c #A7A7A8",
"Q  c #A9A9AA",
"!  c #AAAAAB",
"~  c #ACACAC",
"^  c gray68",
"/  c #AFAFAF",
"(  c #AFAFB0",
")  c gray69",
"_  c #B3B3B4",
"`  c #B4B4B4",
"'  c #BABABB",
"]  c #BBBBBB",
"[  c #BCBCBC",
"{  c #BFBFC0",
"}  c #C1C1C1",
"|  c #C6C6C7",
" . c gray79",
".. c #CACACB",
"X. c #CDCDCD",
"o. c #D0D0D0",
"O. c #D3D3D4",
"+. c gray83",
"@. c #D8D8D8",
"#. c #DFDFDF",
"$. c #DFDFE0",
"%. c #E1E1E1",
"&. c #E6E6E6",
"*. c gray91",
"=. c #EFEFEF",
"-. c #F3F3F3",
";. c #F6F6F6",
":. c #F9F9F9",
">. c #FBFBFB",
",. c white",
/* pixels */
"                                                                                                                                                                ",
"                                                                                                                                                                ",
"                                                                                                                                                                ",
"                                                                                                                                                                ",
"                                                                                                                                                                ",
"                                                                                                                                                                ",
"                                                                                                                                                                ",
"                                                                                                                                                                ",
"                                                                                                                                                                ",
"                                                                                                                                                                ",
"                                                                                                                                                                ",
"                      ,.,.,.,.,.,.,.,.,.,.,.,.,.,.,.,.,.,.,.,.,.,.,.,.,.,.,.,.,.,.,.,.,.,.,.,.,.,.,.,.,.,.,.,.,.,.,.,.,.,.,.,.,.,.,.,.,.,.                      ",
"                      ,.,.,.,.,.,.,.,.,.,.,.,.,.,.,.,.,.,.,.,.,.,.,.,.,.,.,.,.,.,.,.,.,.,.,.,.,.,.,.,.,.,.,.,.,.,.,.,.,.,.,.,.,.,.,.,.,.,.                      ",
"                      ,.,.,.,.,.,.,.,.,.,.,.,.,.,.,.,.,.,.,.,.,.,.,.,.,.,.,.,.,.,.,.,.,.,.,.,.,.,.,.,.,.,.,.,.,.,.,.,.,.,.,.,.,.,.,.,.,.,.                      ",
"                      ,.,.,.,.,.,.,.,.,.,.,.,.,.,.,.,.,.,.,.,.,.,.,.,.,.,.,.,.,.,.,.,.,.,.,.,.,.,.,.,.,.,.,.,.,.,.,.,.,.,.,.,.,.,.,.,.,.,.                      ",
"                      ,.,.,.,.,.,.,.,.,.,.,.,.,.,.,.,.,.,.,.,.,.,.,.,.,.,.,.,.,.,.,.,.,.,.,.,.,.,.,.,.,.,.,.,.,.,.,.,.,.,.,.,.,.,.,.,.,.,.                      ",
"                      ,.,.,.,.,.,.,.,.,.,.,.,.,.,.,.,.,.,.,.,.,.,.,.,.,.,.,.,.,.,.,.,.,.,.,.,.,.,.,.,.,.,.,.,.,.,.,.,.,.,.,.,.,.,.,.,.,.,.                      ",
"                      ,.,.,.,.,.,.,.,.,.,.,.,.,.,.,.,.,.,.,.,.,.,.,.,.,.,.,.,.,.,.,.,.,.,.,.,.,.,.,.,.,.,.,.,.,.,.,.,.,.,.,.,.,.,.,.,.,.,.                      ",
"                      ,.,.,.,.,.,.,.,.,.,.,.,.,.,.,.,.,.,.,.,.,.,.,.,.,.,.,.,.,.,.,.,.,.,.,.,.,.,.,.,.,.,.,.,.,.,.,.,.,.,.,.,.,.,.,.,.,.,.                      ",
"                      ,.,.,.,.,.,.,.,.,.,.,.,.,.,.,.,.,.,.,.,.,.,.,.,.,.,.,.,.,.,.,.,.,.,.,.,.,.,.,.,.,.,.,.,.,.,.,.,.,.,.,.,.,.,.,.,.,.,.                      ",
"                      ,.,.,.,.,.,.,.,.,.,.,.,.,.,.,.,.,.,.,.,.,.,.,.,.,.,.,.,.,.,.,.,.,.,.,.,.,.,.,.,.,.,.,.,.,.,.,.,.,.,.,.,.,.,.,.,.,.,.                      ",
"                      ,.,.,.,.,.,.,.,.,.,.,.,.,.,.,.,.,.,.,.,.,.,.,.,.,.,.,.,.,.,.,.,.,.,.,.,.,.,.,.,.,.,.,.,.,.,.,.,.,.,.,.,.,.,.,.,.,.,.                      ",
"                      ,.,.,.,.,.,.,.,.,.,.,.,.,.,.,.,.,.,.,.,.,.,.,.,.,.,.,.,.,.,.,.,.,.,.,.,.,.,.,.,.,.,.,.,.,.,.,.,.,.,.,.,.,.,.,.,.,.,.                      ",
"                      ,.,.,.,.,.,.,.,.,.,.,.,.,.,.,.,.,.,.,.,.,.,.,.,.,.,.,.,.,.,.,.,.,.,.,.,.,.,.,.,.,.,.,.,.,.,.,.,.,.,.,.,.,.,.,.,.,.,.                      ",
"                      ,.,.,.,.,.,.,.,.,.,.,.,.,.,.,.,.,.,.,.,.,.,.,.,.,.,.,.,.,.,.,.,.,.,.,.,.,.,.,.,.,.,.,.,.,.,.,.,.,.,.,.,.,.,.,.,.,.,.                      ",
"                      ,.,.,.,.,.,.,.,.,.,.,.,.,.,.,.,.,.,.,.,.,.,.,.,.,.,.,.,.,.,.,.,.,.,.,.,.,.,.,.,.,.,.,.,.,.,.,.,.,.,.,.,.,.,.,.,.,.,.                      ",
"                      ,.,.,.,.,.,.,.,.,.,.,.,.,.,.,.,.,.,.,.,.,.,.,.,.,.,.,.,.,.,.,.,.,.,.,.,.,.,.,.,.,.,.,.,.,.,.,.,.,.,.,.,.,.,.,.,.,.,.                      ",
"                      ,.,.,.,.,.,.,.,.,.,.,.,.,.,.,.,.,.,.,.,.,.,.,.,.,.,.,.,.,.,.,.,.,.,.,.,.,.,.,.,.,.,.,.,.,.,.,.,.,.,.,.,.,.,.,.,.,.,.                      ",
"                      ,.,.,.,.,.,.,.,.,.,.,.,.,.,.,.,.,.,.,.,.,.,.,.,.,.,.,.,.,.,.,.,.,.,.,.,.,.,.,.,.,.,.,.,.,.,.,.,.,.,.,.,.,.,.,.,.,.,.                      ",
"                      ,.,.,.,.,.,.,.,.,.,.,.,.,.,.,.,.,.,.,.,.,.,.,.,.,.,.,.,.,.,.,.,.,.,.,.,.,.,.,.,.,.,.,.,.,.,.,.,.,.,.,.,.,.,.,.,.,.,.                      ",
"                      ,.,.,.,.,.,.,.,.,.,.,.,.,.,.,.,.,.,.,.,.,.,.,.,.,.,.,.,.,.,.,.,.,.,.,.,.,.,.,.,.,.,.,.,.,.,.,.,.,.,.,.,.,.,.,.,.,.,.                      ",
"                      ,.,.,.,.,.,.,.,.,.,.,.,.,.,.,.,.,.,.,.,.,.,.,.,.,.,.,.,.,.,.,.,.,.,.,.,.,.,.,.,.,.,.,.,.,.,.,.,.,.,.,.,.,.,.,.,.,.,.                      ",
"                      ,.,.,.,.,.,.,.,.,.,.,.,.,.,.,.,.,.,.,.,.,.,.,.,.,.,.,.,.,.,.,.,.,.,.,.,.,.,.,.,.,.,.,.,.,.,.,.,.,.,.,.,.,.,.,.,.,.,.                      ",
"                      ,.,.,.,.,.,.,.,.,.,.,.,.,.,.,.,.,.,.,.,.,.,.,.,.,.,.,.,.,.,.,.,.,.,.,.,.,.,.,.,.,.,.,.,.,.,.,.,.,.,.,.,.,.,.,.,.,.,.                      ",
"                      ,.,.,.,.,.,.,.,.,.,.,.,.,.,.,.,.,.,.,.,.,.,.,.,.,.,.,.,.,.,.,.,.,.,.,.,.,.,.,.,.,.,.,.,.,.,.,.,.,.,.,.,.,.,.,.,.:.%.                      ",
"                      ,.,.,.,.,.,.,.,.,.,.,.,.,.,.,.,.,.,.,.,.,.,.,.,.,.,.,.,.,.,.,.,.,.,.,.,.,.,.,.,.,.,.,.,.,.,.,.,.,.,.,.,.,.,.:.&.+.+.                      ",
"                      ,.,.,.,.,.,.,.,.,.,.,.,.,.,.,.,.,.,.,.,.,.,.,.,.,.,.,.,.,.,.,.,.,.,.,.,.,.,.,.,.,.,.,.,.,.,.,.,.,.,.,.,.,.=.X. .X.O.                      ",
"                      ,.,.,.,.,.,.,.,.,.,.,.,.,.,.,.,.,.,.,.,.,.,.,.,.,.,.,.,.,.,.,.,.,.,.,.,.,.,.,.,.,.,.,.,.,.,.,.,.,.,.,.;.X.} | |  . .                      ",
"                      ,.,.,.,.,.,.,.,.,.,.,.,.,.,.,.,.,.,.,.,.,.,.,.,.,.,.,.,.,.,.,.,.,.,.,.,.,.,.,.,.,.,.,.,.,.,.,.,.,.,.@.' ' [ [ } |  .X                     ",
"                      ,.,.,.,.,.,.,.,.,.,.,.,.,.,.,.,.,.,.,.,.,.,.,.,.,.,.,.,.,.,.,.,.,.,.,.,.,.,.,.,.,.,.,.,.,.,.,.,.*.` ^ ) _ ' [ [ } |                       ",
"                      ,.,.,.,.,.,.,.,.,.,.,.,.,.,.,.,.,.,.,.,.,.,.,.,.,.,.,.,.,.,.,.,.,.,.,.,.,.,.,.,.,.,.,.,.,.,.-.[ R E Q ^ ^ _ ` [ { } X                     ",
"                      ,.,.,.,.,.,.,.,.,.,.,.,.,.,.,.,.,.,.,.,.,.,.,.,.,.,.,.,.,.,.,.,.,.,.,.,.,.,.,.,.,.,.,.,.,.| U P Y T R W ^ ( _ ` [ '                       ",
"                      ,.,.,.,.,.,.,.,.,.,.,.,.,.,.,.,.,.,.,.,.,.,.,.,.,.,.,.,.,.,.,.,.,.,.,.,.,.,.,.,.,.,.,.#.L F H K P U T R W Q ^ ) ` '                       ",
"                      ,.,.,.,.,.,.,.,.,.,.,.,.,.,.,.,.,.,.,.,.,.,.,.,.,.,.,.,.,.,.,.,.,.,.,.,.,.,.,.,.,.;.Q N C A D H J P U T R W Q ^ ( _                       ",
"                      ,.,.,.,.,.,.,.,.,.,.,.,.,.,.,.,.,.,.,.,.,.,.,.,.,.,.,.,.,.,.,.,.,.,.,.,.,.,.,.,.[ b b m N C Z S G J L U U R W W ~ ^                       ",
"                      ,.,.,.,.,.,.,.,.,.,.,.,.,.,.,.,.,.,.,.,.,.,.,.,.,.,.,.,.,.,.,.,.,.,.,.,.,.,.O.N g k z c n M C Z S G H K U U R R Q Q                       ",
"                      ,.,.,.,.,.,.,.,.,.,.,.,.,.,.,.,.,.,.,.,.,.,.,.,.,.,.,.,.,.,.,.,.,.,.,.,.-.H u a d g k l c b m B Z A F J K P U T R W X                     ",
"                      ,.,.,.,.,.,.,.,.,.,.,.,.,.,.,.,.,.,.,.,.,.,.,.,.,.,.,.,.,.,.,.,.,.,.,.E r 0 e y p s g j l c b m N C A F G K P U T R                       ",
"                      ,.,.,.,.,.,.,.,.,.,.,.,.,.,.,.,.,.,.,.,.,.,.,.,.,.,.,.,.,.,.,.,.,. .g 1 5 7 q e t p s f h l x b n N C Z S H H K U T                       ",
"                      ,.,.,.,.,.,.,.,.,.,.,.,.,.,.,.,.,.,.,.,.,.,.,.,.,.,.,.,.,.,.,.=.B & - : 1 3 6 9 w t u s f g l x c n M C Z S F H K P                       ",
"                      ,.,.,.,.,.,.,.,.,.,.,.,.,.,.,.,.,.,.,.,.,.,.,.,.,.,.,.,.,.,.K $ + # * * : , 3 5 9 q t u p f g j x c b M C Z S F H K                       ",
"                      ,.,.,.,.,.,.,.,.,.,.,.,.,.,.,.,.,.,.,.,.,.,.,.,.,.,.,.,.[ q     X + + * * : , 1 5 9 q e t p f g j x x c m N C Z F H                       ",
"                      ,.,.,.,.,.,.,.,.,.,.,.,.,.,.,.,.,.,.,.,.,.,.,.,.,.,.=.c           X O + $ * - , 1 5 7 q e y i s f j z x b m N C Z S                       ",
"                      ,.,.,.,.,.,.,.,.,.,.,.,.,.,.,.,.,.,.,.,.,.,.,.,.,.K # X             X X # $ * - : , 3 7 9 w t i s f h k x c n m C Z                       ",
"                      ,.,.,.,.,.,.,.,.,.,.,.,.,.,.,.,.,.,.,.,.,.,.,.{ q       X             X X + # * * : 1 3 5 9 q r u p f g j x c b m C                       ",
"                      ,.,.,.,.,.,.,.,.,.,.,.,.,.,.,.,.,.,.,.,.,.=.b                             X + + * * : , 1 5 8 0 r u p d g j l z b m                       ",
"                      ,.,.,.,.,.,.,.,.,.,.,.,.,.,.,.,.,.,.,.,.R #                                   O # % * - > 1 5 7 0 e t p s f j l x b                       ",
"                      ,.,.,.,.,.,.,.,.,.,.,.,.,.,.,.,.,.,.o.0                                         X + $ * - : < 3 6 9 w t u s f h k x                       ",
"                      ,.,.,.,.,.,.,.,.,.,.,.,.,.,.,.,.=.b                                               o + # $ - : 1 3 5 9 q t u p f g j                       ",
"                      ,.,.,.,.,.,.,.,.,.,.,.,.,.,.,.T #                                                 X X O # % * : , 2 5 7 q r y p d g X                     ",
"                      ,.,.,.,.,.,.,.,.,.,.,.,.,.#.q                                                         X + # $ * - , 1 5 7 0 e t i s                       ",
"                      ,.,.,.,.,.,.,.,.,.,.,.=.Z                                                                 X + # * - : 1 3 7 8 w t u                       ",
"                      ,.,.,.,.,.,.,.,.,.,.( -                 X                                                 X X + # * = : < 4 6 8 w e X                     ",
"                      ,.,.,.,.,.,.,.,.$.q                                                                       X     + # % * : > 2 6 8 0                       ",
"                      ,.,.,.,.,.,.=.Z     X                                     X                                       + + # & - : 2 4 8                       ",
"                      ,.,.,.,.,.{ -                                                                 X   X                 O # # & : > 2 4                       ",
"                      ,.,.,.$.q               X                 X                                                           X + # $ - - ,                       ",
"                      ,.=.C #                                                                                                 X O # % = -                       ",
"                      [ -                                                                                                       X o @ # *                       ",
"                        X                                                                                                           X   X X                     ",
"                                                                                                                                X                               ",
"                                                                                                                                                                ",
"                                                                                                                                                                ",
"                                                                                                                                                                ",
"                                                                                                                                                                ",
"                                                                                                                                                                ",
"                                                                                                                                                                ",
"                                                                                                                                                                ",
"                                                                                                                                                                ",
"                                                                                                                                                                "
};
