/* XPM */
static char *_3abf582010341eacb3242a4feba46bctXJG46iPisj3JKBr[] = {
/* columns rows colors chars-per-pixel */
"80 80 2 1 ",
"  c #010103",
". c white",
/* pixels */
"                                                                                ",
"                                                                                ",
"                                                                                ",
"                                                                                ",
"                                                                                ",
"                                                                                ",
"                                                                                ",
"                                                                                ",
"                                                                                ",
"                                                                                ",
"                                                                                ",
"           ..........................................................           ",
"           ..........................................................           ",
"           ..........................................................           ",
"           ..........................................................           ",
"           ..........................................................           ",
"           ..........................................................           ",
"           ..........................................................           ",
"           ..........................................................           ",
"           ..........................................................           ",
"           ..........................................................           ",
"           ..........................................................           ",
"           ..........................................................           ",
"           ..........................................................           ",
"           ..........................................................           ",
"           ..........................................................           ",
"           ..........................................................           ",
"           ..........................................................           ",
"           ..........................................................           ",
"           ..........................................................           ",
"           ..........................................................           ",
"           ..........................................................           ",
"           ..........................................................           ",
"           ..........................................................           ",
"           ..........................................................           ",
"           ..........................................................           ",
"           ..........................................................           ",
"           ..........................................................           ",
"           ..........................................................           ",
"           ..........................................................           ",
"           ..........................................................           ",
"           ..........................................................           ",
"           ..........................................................           ",
"           ..........................................................           ",
"           ..........................................................           ",
"           ..........................................................           ",
"           ..........................................................           ",
"           ..........................................................           ",
"           ..........................................................           ",
"           ..........................................................           ",
"           ..........................................................           ",
"           ..........................................................           ",
"           ..........................................................           ",
"           ..........................................................           ",
"           ..........................................................           ",
"           ..........................................................           ",
"           ..........................................................           ",
"           ..........................................................           ",
"           ..........................................................           ",
"           ..........................................................           ",
"           ..........................................................           ",
"           ..........................................................           ",
"           ..........................................................           ",
"           ..........................................................           ",
"           ..........................................................           ",
"           ..........................................................           ",
"           ..........................................................           ",
"           ..........................................................           ",
"           ..........................................................           ",
"                                                                                ",
"                                                                                ",
"                                                                                ",
"                                                                                ",
"                                                                                ",
"                                                                                ",
"                                                                                ",
"                                                                                ",
"                                                                                ",
"                                                                                ",
"                                                                                "
};
