/* XPM */
static char *result[] = {
/* columns rows colors chars-per-pixel */
"80 80 10 1 ",
"  c #010103",
". c #212021",
"X c gray13",
"o c #605F5C",
"O c #BFBDB5",
"+ c #CFCDC4",
"@ c #DEDCD3",
"# c #DEDDD3",
"$ c #EEECE2",
"% c #FEFCF1",
/* pixels */
"                                                                                ",
"                                                                                ",
"                                                                                ",
"                                                                                ",
"                                                                                ",
"                                                                                ",
"                                                                                ",
"                                                                                ",
"                                                                                ",
"                                                                                ",
"                                                                                ",
"                                                                                ",
"                                                                                ",
"                                                                                ",
"                                                                                ",
"                                                                                ",
"                                                                                ",
"                                                                                ",
"                                                                                ",
"                                                                                ",
"                                                                                ",
"                                                                                ",
"                                                                                ",
"                                                                                ",
"                                                                                ",
"                                                                                ",
"                                                                                ",
"                                                                                ",
"                                                                                ",
"                                                                                ",
"                                                                                ",
"                                                                                ",
"                                                                                ",
"                                    oO$%$Oo                                     ",
"                                  .+%%%%%%%#X                                   ",
"                                 .@%%%%%%%%%#X                                  ",
"                                 @%%%%%%%%%%%+                                  ",
"                                o%%%%%%%%%%%%%o                                 ",
"                                O%%%%%%%%%%%%%O                                 ",
"                                $%%%%%%%%%%%%%$                                 ",
"                                %%%%%%%%%%%%%%%                                 ",
"                                $%%%%%%%%%%%%%$                                 ",
"                                O%%%%%%%%%%%%%O                                 ",
"                                o%%%%%%%%%%%%%o                                 ",
"                                 +%%%%%%%%%%%#                                  ",
"                                 .@%%%%%%%%%#X                                  ",
"                                  .@%%%%%%%+X                                   ",
"                                    oO$%$Oo                                     ",
"                                                                                ",
"                                                                                ",
"                                                                                ",
"                                                                                ",
"                                                                                ",
"                                                                                ",
"                                                                                ",
"                                                                                ",
"                                                                                ",
"                                                                                ",
"                                                                                ",
"                                                                                ",
"                                                                                ",
"                                                                                ",
"                                                                                ",
"                                                                                ",
"                                                                                ",
"                                                                                ",
"                                                                                ",
"                                                                                ",
"                                                                                ",
"                                                                                ",
"                                                                                ",
"                                                                                ",
"                                                                                ",
"                                                                                ",
"                                                                                ",
"                                                                                ",
"                                                                                ",
"                                                                                ",
"                                                                                ",
"                                                                                "
};
