/* XPM */
static char *result[] = {
/* columns rows colors chars-per-pixel */
"80 80 30 1 ",
"  c #010103",
". c #111112",
"X c #212120",
"o c #212021",
"O c gray13",
"+ c #30302F",
"@ c gray19",
"# c #40403E",
"$ c #504F4D",
"% c #50504D",
"& c #605F5C",
"* c #6F6E6B",
"= c #6F6F6B",
"- c #706E6B",
"; c #7F7F7A",
": c #807E7A",
"> c #8F8F89",
", c #908E88",
"< c #908E89",
"1 c #9F9E97",
"2 c #9F9D98",
"3 c #9F9E98",
"4 c #AFADA6",
"5 c #AFADA7",
"6 c #BFBDB5",
"7 c #CFCDC4",
"8 c #DEDCD3",
"9 c #DEDDD3",
"0 c #EEECE2",
"q c #FEFCF1",
/* pixels */
"                                                                                ",
"                                                                                ",
"                                                                                ",
"                                                                                ",
"                                                                                ",
"                                                                                ",
"                                                                                ",
"                                                                                ",
"                                                                                ",
"                                                                                ",
"                                                                                ",
"                                .%,478qqqq874:%.                                ",
"                             .*6qqqqqqqqqqqqqqqq6&O                             ",
"                           #4qqq06<&+X    X#%<6qqqq1O                           ",
"                         o1qqq6#.              .%3qqq1O                         ",
"                        -0q0;.                    o3qq0-                        ",
"                      .4qq5O                        o3qq1.                      ",
"                     o8q0%                            &8q9O                     ",
"                    o8q9O                              o8q9O                    ",
"                   o8q7.                                .7q9O                   ",
"                  .8q7.                                  .7q9.                  ",
"                  4q9.                                    .8q4                  ",
"                 :q9O                                      o0q-                 ",
"                oqq&                                        #q0O                ",
"                8q>                                          >q6                ",
"               &q9O                                          .0q&               ",
"               8q&                                            &q9.              ",
"              &q9                                              6q:              ",
"              8q&          .:8q9:.            .:8q9:.          #q0              ",
"             &q9          .7qqqqq7.          .7qqqqq7.          8q#             ",
"             6q&          :qqqqqqq:          :qqqqqqq:          -q6             ",
"            oqqO          8qqqqqqq9          8qqqqqqq9          .0q.            ",
"            &q5           qqqqqqqqq          qqqqqqqqq           6q-            ",
"            6q&           8qqqqqqq9          8qqqqqqq9           &q6            ",
"            qqO           :qqqqqqq;          :qqqqqqq;           .q0            ",
"           #q7            .7qqqqq7.          .7qqqqq7.            8q@           ",
"           &q5             .;8q8;.            .;8q8;.             2q&           ",
"           <q:                                                    -q<           ",
"           6q$                                                    %q5           ",
"           7q@                                                    oq9           ",
"           qq                                                      qq           ",
"          @q9                                                      8qO          ",
"          #q6                                                      6q$          ",
"          &q3                                                      2q&          ",
"          :q:                                                      :q:          ",
"          2q-                                                      &q3          ",
"          4q$                                                      &q5          ",
"          6q#                                                      #q6          ",
"          7q@                                                      oq9          ",
"          8qO                                                      oq9          ",
"          0q.                                                      .q0          ",
"          qq                                                        qq          ",
"          qq                                                        qq          ",
"          qq                                                        qq          ",
"          qq                                                        qq          ",
"          qq                                                        qq          ",
"          8qO            -6qq06&                #60qq7&            oq9          ",
"          8qO           3qqqqqqq:              :qqqqqqq1           @q7          ",
"          6q#          :q9#. o=qq-            &qq;.  &8q:          #q6          ",
"          2q&         .8q%     =q0.           8q=     #q0.         &q5          ",
"          -q<         &q6       6q$          &q9       6q&         <q:          ",
"          %q6         4q&       -q6          6q&       -q3         6q#          ",
"          .q0.        0qO       .qq.        oqqO       oq0        .qq.          ",
"           6q$       #q9         6q-        &q6         8q#       &q6           ",
"           -q6       1q3         %q7        8q&         <q<       7q&           ",
"           .0q-     oqqO          8q:      :q9          #q0O     -q9            ",
"            &qq:O .#8q3           #qq1#XX#1qq%           >q9&. .:qq&            ",
"             ;qqqqqqq6.            =qqqqqqq0=            .7qqqqqqq;             ",
"              %60q06&               o37087<O               &60q06#              ",
"                                                                                ",
"                                                                                ",
"                                                                                ",
"                                                                                ",
"                                                                                ",
"                                                                                ",
"                                                                                ",
"                                                                                ",
"                                                                                ",
"                                                                                ",
"                                                                                "
};
