/* XPM */
static char *result[] = {
/* columns rows colors chars-per-pixel */
"80 80 32 1 ",
"  c #010103",
". c #05050A",
"X c #0A0910",
"o c #0A0911",
"O c #0E0D17",
"+ c #0F0E17",
"@ c #13121E",
"# c #171625",
"$ c #181625",
"% c #1C1A2B",
"& c #1C1B2B",
"* c #1C1A2C",
"= c #1C1B2C",
"- c #201E32",
"; c #201F32",
": c #252339",
"> c #292740",
", c #2E2B46",
"< c #2E2B47",
"1 c #2E2C46",
"2 c #322F4D",
"3 c #32304D",
"4 c #373454",
"5 c #3B385B",
"6 c #3B395B",
"7 c #403C61",
"8 c #403D61",
"9 c #403C62",
"0 c #403D62",
"q c #444068",
"w c #444168",
"e c #49456F",
/* pixels */
"                                                                                ",
"                                                                                ",
"                                                                                ",
"                                                                                ",
"                                                                                ",
"                                                                                ",
"                                                                                ",
"                                                                                ",
"                                                                                ",
"                                                                                ",
"                                                                                ",
"                                .#>368eeee863:#.                                ",
"                             .-4eeeeeeeeeeeeeeee4%o                             ",
"                           @3eeeq4>=Oo    o@#>4eeee,o                           ",
"                         X,eee4@.              .#,eee,o                         ",
"                        -qeq:.                    X,eew;                        ",
"                      .3ee3o                        X,ee,.                      ",
"                     X7eq#                            *7e9o                     ",
"                    X7e9o                              X7e9o                    ",
"                   X7e5.                                .5e9o                   ",
"                  .7e5.                                  .5e9.                  ",
"                  3e9.                                    .7e3                  ",
"                 :e9o                                      Xqe;                 ",
"                Xee%                                        @ewo                ",
"                7e>                                          >e4                ",
"               *e9o                                          .qe%               ",
"               7e%                                            *e9.              ",
"              *e9                                              4e:              ",
"              7e%          .:8e9:.            .:8e9:.          @ew              ",
"             *e9          .5eeeee6.          .5eeeee6.          7e@             ",
"             4e%          :eeeeeee:          :eeeeeee:          -e4             ",
"            Xeeo          7eeeeeee0          7eeeeeee0          .qe.            ",
"            *e3           eeeeeeeee          eeeeeeeee           4e;            ",
"            4e%           8eeeeeee9          8eeeeeee9           =e4            ",
"            eeo           :eeeeeee:          :eeeeeee:           .ew            ",
"           @e5            .5eeeee5.          .5eeeee5.            8e+           ",
"           *e3             .:7e8:.            .:7e8:.             ,e&           ",
"           >e:                                                    -e>           ",
"           4e$                                                    #e3           ",
"           5e+                                                    Xe0           ",
"           ee                                                      ee           ",
"          Oe0                                                      8eo          ",
"          @e4                                                      4e$          ",
"          =e,                                                      ,e&          ",
"          :e:                                                      :e:          ",
"          ,e;                                                      =e,          ",
"          2e$                                                      =e3          ",
"          4e@                                                      @e4          ",
"          5e+                                                      Xe0          ",
"          8eo                                                      Xe0          ",
"          qe.                                                      .ew          ",
"          ee                                                        ee          ",
"          ee                                                        ee          ",
"          ee                                                        ee          ",
"          ee                                                        ee          ",
"          ee                                                        ee          ",
"          8eo            -4eeq4%                @4qee6%            Xe0          ",
"          8eo           1eeeeeee:              :eeeeeee<           Oe5          ",
"          4e@          :e9@. X-ee;            *ee:.  *7e:          @e4          ",
"          ,e&         .7e#     -ew.           7e;     @ew.         =e3          ",
"          -e>         *e4       4e$          *e9       4e&         >e:          ",
"          #e4         2e%       -e4          4e%       -e,         4e@          ",
"          .ew.        qeo       .ee.        Xeeo       Xew        .ee.          ",
"           4e$       @e9         4e;        *e4         8e@       *e4           ",
"           -e4       ,e,         #e6        7e%         >e>       5e%           ",
"           .qe;     Xeeo          7e:      :e9          @ewo     -e9            ",
"            %ee:o .@7e,           @ee,@oo@,ee#           >e9%. .:ee%            ",
"             :eeeeeee4.            -eeeeeeeq;            .5eeeeeee:             ",
"              #4qeq4%               X,5q85>o               *4qeq4@              ",
"                                                                                ",
"                                                                                ",
"                                                                                ",
"                                                                                ",
"                                                                                ",
"                                                                                ",
"                                                                                ",
"                                                                                ",
"                                                                                ",
"                                                                                ",
"                                                                                "
};
