/* XPM */
static char *ed9a7300ed2a4f419dcab5779fc9348fDXcvoIMHJm9XRc1l[] = {
/* columns rows colors chars-per-pixel */
"80 80 21 1 ",
"  c #010103",
". c #111108",
"X c #21200D",
"o c #21210D",
"O c #303012",
"+ c #313012",
"@ c #404017",
"# c #605F21",
"$ c #605F22",
"% c #706F26",
"& c #908F30",
"* c #908F31",
"= c #A09E35",
"- c #A09E36",
"; c #AFAE3A",
": c #BFBE3F",
"> c #BFBE40",
", c #CFCE44",
"< c #DFDD4A",
"1 c #EFED4F",
"2 c #FFFD54",
/* pixels */
"                                                                                ",
"                                                                                ",
"                                                                                ",
"                                                                                ",
"                                                                                ",
"                                                                                ",
"                                                                                ",
"                                                                                ",
"                                                                                ",
"                                                                                ",
"                                                                                ",
"                                                                                ",
"                                                                                ",
"                                                                                ",
"                                 O%-,<2222<>*%O                                 ",
"                              @*122222222222222<;O                              ",
"                            @>22222222222222222222,$                            ",
"                          @>222222222222222222222222<.                          ",
"                        .*2222222222222222222222222222&.                        ",
"                       X<222222222222222222222222222222<X                       ",
"                      O1222222222222222222222222222222221O                      ",
"                     $222222222222222222222222222222222222$                     ",
"                    O22222222222222222222222222222222222222O                    ",
"                   X1222222222222222222222222222222222222221X                   ",
"                  .<2222222222222222222222222222222222222222<.                  ",
"                  *222222222222222222222222222222222222222222*                  ",
"                 X22222222222222222222222222222222222222222222@                 ",
"                 <22222222222222222222222222222222222222222222:                 ",
"                $2222222222222222222222222222222222222222222222O                ",
"                ,22222222222222222222222222222222222222222222>@                 ",
"               O2222222222222222222222222222222222222222222>@                   ",
"               -22222222222222222222222222222222222222222;@                     ",
"               <222222222222222222222222222222222222221-.                       ",
"              O22222222222222222222222222222222222221&.                         ",
"              %222222222222222222222222222222222221%.                           ",
"              &2222222222222222222222222222222221%..                            ",
"              :22222222222222222222222222222221&.                               ",
"              <22222222222222222222222222222<$                                  ",
"              2222222222222222222222222222,O                                    ",
"              22222222222222222222222222,O                                      ",
"              22222222222222222222222222>O                                      ",
"              2222222222222222222222222222;X                                    ",
"              <22222222222222222222222222222-.                                  ",
"              ,2222222222222222222222222222222;.                                ",
"              ;222222222222222222222222222222222;.                              ",
"              %22222222222222222222222222222222222;X                            ",
"              O2222222222222222222222222222222222222%X                          ",
"               12222222222222222222222222222222222222<&X                        ",
"               &222222222222222222222222222222222222222<#                       ",
"               +22222222222222222222222222222222222222222<#                     ",
"                >222222222222222222222222222222222222222222<#                   ",
"                @22222222222222222222222222222222222222222222<#                 ",
"                 >22222222222222222222222222222222222222222222<                 ",
"                 @22222222222222222222222222222222222222222222X                 ",
"                  &222222222222222222222222222222222222222222&                  ",
"                  .<2222222222222222222222222222222222222222<.                  ",
"                   X122222222222222222222222222222222222222<X                   ",
"                    O22222222222222222222222222222222222222O                    ",
"                     #222222222222222222222222222222222222#                     ",
"                      O1222222222222222222222222222222221O                      ",
"                       X<222222222222222222222222222222<X                       ",
"                        .&2222222222222222222222222222&.                        ",
"                          X<222222222222222222222222:@                          ",
"                            #,22222222222222222222>@                            ",
"                              +;<222222222222221&@                              ",
"                                 O%&:<2221<,;%X                                 ",
"                                                                                ",
"                                                                                ",
"                                                                                ",
"                                                                                ",
"                                                                                ",
"                                                                                ",
"                                                                                ",
"                                                                                ",
"                                                                                ",
"                                                                                ",
"                                                                                ",
"                                                                                ",
"                                                                                ",
"                                                                                "
};
