/* XPM */
static char *result[] = {
/* columns rows colors chars-per-pixel */
"81 81 30 1 ",
"  c #010103",
". c #111112",
"X c #212120",
"o c #212021",
"O c gray13",
"+ c #30302F",
"@ c gray19",
"# c #40403E",
"$ c #504F4D",
"% c #50504D",
"& c #605F5C",
"* c #6F6F6B",
"= c #706E6B",
"- c #7F7F7A",
"; c #807E7A",
": c #8F8F89",
"> c #908E88",
", c #908E89",
"< c #9F9E97",
"1 c #9F9D98",
"2 c #9F9E98",
"3 c #AFADA6",
"4 c #AFADA7",
"5 c #BFBDB5",
"6 c #CFCDC4",
"7 c #DEDCD3",
"8 c #DEDDD3",
"9 c #EEECE2",
"0 c #FEFCF1",
"q c None",
/* pixels */
"                                                                                q",
"                                                                                q",
"                                                                                q",
"                                                                                q",
"                                                                                q",
"                                                                                q",
"                                                                                q",
"                                                                                q",
"                                                                                q",
"                                                                                q",
"                                                                                q",
"                                                                                q",
"                                                                                q",
"                                                     @&                         q",
"                         #75                         708&                       q",
"                       .,000%                       &0000>.                     q",
"                      o709308                       70&-008O                    q",
"                     @906O 70=                     &08  o709+                   q",
"                    &002.  #09.                    70&   .<00&                  q",
"                   #00-     50;                   &08      -00#                 q",
"                  o90-      #09.                  70&       -09+                q",
"                 o70:        50;                 &08         <08.               q",
"                 <08         #09.                70&          603               q",
"                &08O          30<               &08           o90&              q",
"               o70&           o00O              70&            *09.             q",
"               ,06             :05             &08              50;             q",
"              o00O             .90#            70&              #09.            q",
"              <02               ;05           #08                50;            q",
"              70#               .90#          50&                #09            q",
"             %06                 ;05         #08O                 50#           q",
"             <0&                 .90%        50-                  =02           q",
"             90O                  &08       #08O                  o09           q",
"            #06                    70=      30-                    70@          q",
"            =02                    #09.    o08O                    10=          q",
"            ,0=                     50;    <02                     =02          q",
"            50#                     #09.  o00O                     %05          q",
"            70O                      50;  <02                      o08          q",
"            00.                      #09Oo00O                      .09          q",
"            00                        30000:                        00          q",
"            00                        .209:                         00          q",
"            00                                                      00          q",
"            70O                                                    o08          q",
"            60@                                                    #06          q",
"            30&                                                    %04          q",
"            ,0,                                                    ;0;          q",
"            %05                                                    50$          q",
"            .09.                                                   00.          q",
"             50#                                                  %06           q",
"             ;02                                                  <0=           q",
"             .09.                                                o00O           q",
"              50;                                                &05            q",
"              #09.                                               70#            q",
"               50;                                              ;08             q",
"               #09O                                            o00#             q",
"                305                                            502              q",
"                .90=                                          ;08O              q",
"                 %00#                                        #00%               q",
"                  -09O                                      o90-                q",
"                   <08O                                    o702                 q",
"                    <08+                                  @902                  q",
"                     <00=                                =002                   q",
"                      -00<O                            .300:                    q",
"                       &908&                          =909&                     q",
"                        o5008&                      #5005O                      q",
"                          &7008;O                X;9008%                        q",
"                            &70006>%+        X&>60006&                          q",
"                              #2900000755567000009<#                            q",
"                                 #;560000000073-#                               q",
"                                      X###+X                                    q",
"                                                                                q",
"                                                                                q",
"                                                                                q",
"                                                                                q",
"                                                                                q",
"                                                                                q",
"                                                                                q",
"                                                                                q",
"                                                                                q",
"                                                                                q",
"                                                                                q",
"qqqqqqqqqqqqqqqqqqqqqqqqqqqqqqqqqqqqqqqqqqqqqqqqqqqqqqqqqqqqqqqqqqqqqqqqqqqqqqqqq"
};
