/* XPM */
static char *result[] = {
/* columns rows colors chars-per-pixel */
"81 81 30 1 ",
"  c #010103",
". c #111112",
"X c #212120",
"o c #212021",
"O c gray13",
"+ c #30302F",
"@ c gray19",
"# c #40403E",
"$ c #504F4D",
"% c #50504D",
"& c #605F5C",
"* c #6F6E6B",
"= c #6F6F6B",
"- c #706E6B",
"; c #7F7F7A",
": c #807E7A",
"> c #8F8F89",
", c #908E88",
"< c #908E89",
"1 c #9F9E97",
"2 c #9F9D98",
"3 c #9F9E98",
"4 c #AFADA6",
"5 c #BFBDB5",
"6 c #CFCDC4",
"7 c #DEDCD3",
"8 c #DEDDD3",
"9 c #EEECE2",
"0 c #FEFCF1",
"q c None",
/* pixels */
"                                                                                q",
"                                                                                q",
"                                                                                q",
"                                                                                q",
"                                                                                q",
"                                                                                q",
"                                                                                q",
"                                                                                q",
"                                                                                q",
"                                                                                q",
"                                                                                q",
"                                                                                q",
"                                 .#*1670000754:#.                               q",
"                              .*590000000000000005&O                            q",
"                            #,90005<&+X    X#%<500001O                          q",
"                          o50005&.              o&50001O                        q",
"                        .:909;O                    o3000:                       q",
"                       o6003.                        o3008O                     q",
"                      &908#                            o709-                    q",
"                     :00>.                              .>00:                   q",
"                    :00;                                  ;00:                  q",
"                   :00&                                    &00:                 q",
"                  -00&                                      &00&                q",
"                 o90;                                        ;09O               q",
"                 70>                                          >06               q",
"                :08.                                          .70:              q",
"               o00O                                            -09.             q",
"               103                                           #5008O             q",
"              o00O                                         o5009;.              q",
"              103                                        .<009;.                q",
"             o00O                                      .:900>.                  q",
"             &05                                     .:9005O                    q",
"             50&                                    -9005#                      q",
"            .00O                                  #7005#                        q",
"            #05                                 #5008#                          q",
"            :0<                               #5009=                            q",
"            40$                             o5009;.                             q",
"            50#                           .<009;.                               q",
"            70O                          -900>.                                 q",
"            00                          &005O                                   q",
"            00                          50=                                     q",
"            00                          40,                                     q",
"            00                          &005&                                   q",
"            70O                          &7008&                                 q",
"            60@                            &7008&                               q",
"            20&                              &7008&                             q",
"            -0<                                &7008&                           q",
"            #06                                  &7008&                         q",
"            .90.                                   &7008&                       q",
"             50&                                     &7008&.                    q",
"             -05                                       &7008:O                  q",
"             .90O                                        #5008:O                q",
"              <0:                                          #50081O              q",
"              #09.                                           #4000-             q",
"               501                                             o703             q",
"               o90#                                            o00O             q",
"                :08.                                          .70;              q",
"                 60,                                          <08               q",
"                 o90:                                        :09O               q",
"                  &00&                                      &00&                q",
"                   ;00&                                    &00;                 q",
"                    ;00:                                  :00;                  q",
"                     ;00,.                              .<00;                   q",
"                      =908O                            #709&                    q",
"                       o7001O                        .1006O                     q",
"                         ;0001O                    o:909;                       q",
"                          o30005&O              .*50005O                        q",
"                            o300005,%#X    X+&,60009<#                          q",
"                              o&500000000000000095*.                            q",
"                                 .#*4570000761*#.                               q",
"                                                                                q",
"                                                                                q",
"                                                                                q",
"                                                                                q",
"                                                                                q",
"                                                                                q",
"                                                                                q",
"                                                                                q",
"                                                                                q",
"                                                                                q",
"qqqqqqqqqqqqqqqqqqqqqqqqqqqqqqqqqqqqqqqqqqqqqqqqqqqqqqqqqqqqqqqqqqqqqqqqqqqqqqqqq"
};
