/* XPM */
static char *result[] = {
/* columns rows colors chars-per-pixel */
"81 81 31 1 ",
"  c #010103",
". c #111112",
"X c #212120",
"o c #212021",
"O c gray13",
"+ c #30302F",
"@ c gray19",
"# c #40403E",
"$ c #504F4D",
"% c #50504D",
"& c #605F5C",
"* c #6F6E6B",
"= c #6F6F6B",
"- c #706E6B",
"; c #7F7F7A",
": c #807E7A",
"> c #8F8F89",
", c #908E88",
"< c #908E89",
"1 c #9F9E97",
"2 c #9F9D98",
"3 c #9F9E98",
"4 c #AFADA6",
"5 c #AFADA7",
"6 c #BFBDB5",
"7 c #CFCDC4",
"8 c #DEDCD3",
"9 c #DEDDD3",
"0 c #EEECE2",
"q c #FEFCF1",
"w c None",
/* pixels */
"                                                                                w",
"                                                                                w",
"                                                                                w",
"                                                                                w",
"                                                                                w",
"                                                                                w",
"                                                                                w",
"                                                                                w",
"                                                                                w",
"                                                                                w",
"                                                                                w",
"                                                                                w",
"                                +*1780qqq874:%.                                 w",
"                            .#10qqqqqqqqqqqqqqq7*O                              w",
"                          .:0qqq81*%X.   X#%:6qqqq6#                            w",
"                        .:0qq6*X               %3qqq9#                          w",
"                       &0qq6#                    o&8qq1O                        w",
"                     .4qq6#                         ;0q9&                       w",
"                    @8q0=                            o4qq:                      w",
"                   #0q7O                               ;qq1                     w",
"                  &qq3                                  #0q1                    w",
"                 @qq;                                    o8q1                   w",
"                o0q;                                      o0q,                  w",
"               .8q3                                        +qq&                 w",
"               <q9.                                         =q0O                w",
"              &qqO                                           4q6                w",
"              8q;                                            .0q%               w",
"             &q9                                              =q9               w",
"             8q&                                               6q-              w",
"            &q9                                                #q7              w",
"            7q&                                                 0q#             w",
"           oq9                                                  :q3             w",
"           -q3                                                  oq0             w",
"           6q#                                                   7q#            w",
"          .qq.                                                   <q:            w",
"          #q6                                                    &q5            w",
"          -q<                                                    oq9            w",
"          <q-                                                     qq            w",
"          4q$                                                     8qO           w",
"          6q#                                                     7q@           w",
"          6q#                        #46,.                        6q#           w",
"          6q#                       oqqqq6                        6q#           w",
"          6q#                       6q>#0q#                       7q#           w",
"          2q&                      oq9O :q6                       8qO           w",
"          <q-                      1q;  .8q&                      qq            w",
"          -q3                     oqqO   &q9.                    @q7            w",
"          #q7                     1q3     6q:                    %q6            w",
"          .qq.                   oqqO     #q0.                   <q:            w",
"           6q#                   1q3       6q:                   7q#            w",
"           :q<                  oqqO       #q0.                 oq0             w",
"           #q0.                 1q3         6q:                 :q3             w",
"            6q&                oqqO         #q0O                8q#             w",
"            -q6                1q3           3q1               &q9              w",
"            .0q#              oqqO           o0q#              8q&              w",
"             :q9              1q3             :q6             &q9               w",
"              8q-            oqqO             .0q#           o8q&               w",
"              #q0O           1q3               :q6           1q4                w",
"               >q9.         oqqO               .0q#         -q0O                w",
"               .8q1         1q3                 :q6        @qq&                 w",
"                o0q:       o8qO                 .8q&      o8q;                  w",
"                 +qq:      :q5                   &q9     o8q3                   w",
"                  &qq,    o8q#                    6q:   #0q3                    w",
"                   #0q9O  :q6                     #q0. -qq3                     w",
"                    o8q9&.8q#                      6q16qq;                      w",
"                     o3qq9q6                       #qqq0#                       w",
"                       &8qq#                        6q5.                        w",
"                        o>;                          +                          w",
"                                                                                w",
"                                                                                w",
"                                                                                w",
"                                                                                w",
"                                                                                w",
"                                                                                w",
"                                                                                w",
"                                                                                w",
"                                                                                w",
"                                                                                w",
"                                                                                w",
"                                                                                w",
"                                                                                w",
"wwwwwwwwwwwwwwwwwwwwwwwwwwwwwwwwwwwwwwwwwwwwwwwwwwwwwwwwwwwwwwwwwwwwwwwwwwwwwwwww"
};
